<svg fill="none" height="40" viewBox="0 0 172 40" width="172" xmlns="http://www.w3.org/2000/svg" xmlns:xlink="http://www.w3.org/1999/xlink"><clipPath id="a"><path d="m0 0h171.908v40h-171.908z"/></clipPath><g clip-path="url(#a)"><path d="m0 0h171.908v40h-171.908z" fill="#fff"/><g clip-rule="evenodd" fill="#262626" fill-rule="evenodd"><path d="m57.3254 21.759c-1.0487 0-2.0657-.1492-3.0421-.4476-.9809-.2985-1.7539-.6964-2.3234-1.1893l.8769-1.9625c.5605.4432 1.2431.8004 2.0522 1.0808.8091.2803 1.6228.4205 2.4409.4205 1.0125 0 1.7674-.1628 2.2646-.4884.5018-.3255.7504-.7506.7504-1.2842 0-.3888-.1401-.7099-.4204-.9631-.2802-.2532-.6328-.4522-1.0577-.5924-.4294-.1401-1.008-.3029-1.7493-.4883-1.0352-.2442-1.8759-.4929-2.5178-.7371-.6419-.2487-1.1933-.633-1.6544-1.1576-.4611-.5245-.6916-1.2344-.6916-2.1297 0-.7507.2034-1.438.6148-2.05295.4068-.61496 1.0215-1.10332 1.8487-1.46959.8227-.36174 1.8307-.54262 3.0241-.54262.8317 0 1.6453.10401 2.4499.31201s1.4962.50644 2.0793.89532l-.7955 1.96243c-.5967-.3481-1.216-.6149-1.8669-.7958-.6464-.18087-1.2747-.27131-1.8849-.27131-.999 0-1.7403.16731-2.224.50641-.4882.3346-.7277.7823-.7277 1.343 0 .3889.1401.7054.4204.9541.2757.2487.6328.4386 1.0622.5833s1.008.3075 1.7493.4884c1.0126.2351 1.8398.4748 2.4907.728s1.2023.6376 1.6634 1.1576.6916 1.2209.6916 2.1026c0 .7507-.2034 1.4334-.6147 2.0439-.4069.6104-1.0261 1.0943-1.8579 1.4605-.8271.3663-1.8397.5427-3.033.5427zm11.635-11.6708h-4.5111v-2.13882h11.5491v2.13882h-4.5112v11.4764h-2.5268zm18.1487 8.3247h-6.8074l-1.3425 3.1517h-2.6037l6.1249-13.61522h2.4907l6.1429 13.61522h-2.6443zm-.8362-1.9851-2.5675-5.9507-2.5494 5.9507zm19.7261-8.48294v13.61524h-2.079l-7.5083-9.22v9.22h-2.5087v-13.61524h2.0793l7.5037 9.21994v-9.21994h2.509zm4.71 0h5.949c1.455 0 2.744.28488 3.869.84558 1.13.56523 2.003 1.36106 2.626 2.39206.624 1.031.932 2.2202.932 3.5722s-.312 2.5368-.932 3.5677c-.623 1.031-1.496 1.8268-2.626 2.3921-1.125.5652-2.414.8456-3.869.8456h-5.949zm5.836 11.47634c.999 0 1.876-.1899 2.635-.5742.755-.3844 1.343-.927 1.749-1.6324.412-.7054.615-1.5284.615-2.4599s-.203-1.7544-.615-2.4599c-.406-.7054-.99-1.2525-1.749-1.6323-.759-.3799-1.636-.5743-2.635-.5743h-3.305v9.3376h3.305zm19.92-1.0129h-6.807l-1.343 3.1518h-2.603l6.125-13.61524h2.49l6.143 13.61524h-2.644zm-.836-1.985-2.567-5.9507-2.55 5.9507h5.113zm16.535 5.1322-2.78-3.9882c-.117.0136-.289.0181-.524.0181h-3.074v3.9656h-2.527v-13.61518h5.601c1.18 0 2.206.19443 3.083.58331s1.546.94506 2.011 1.67307c.466.728.701 1.5872.701 2.5865s-.249 1.9082-.751 2.6452c-.497.7416-1.216 1.2888-2.147 1.655l3.133 4.4721h-2.721zm-.059-8.7723c0-.8682-.284-1.5374-.854-2.0032-.57-.4657-1.406-.7008-2.509-.7008h-2.956v5.4261h2.956c1.099 0 1.935-.2351 2.509-.7099.57-.4748.854-1.144.854-2.0122zm6.424-4.84286h5.948c1.451 0 2.739.28487 3.869.84558 1.126.56523 2.003 1.36108 2.627 2.39208.623 1.0309.931 2.2202.931 3.5722s-.312 2.5367-.931 3.5677c-.62 1.031-1.496 1.8268-2.627 2.3921-1.13.5652-2.418.8455-3.869.8455h-5.948zm5.835 11.47636c.999 0 1.876-.1899 2.635-.5743.76-.3843 1.343-.9269 1.75-1.6323s.61-1.5284.61-2.4599-.203-1.7545-.61-2.4599-.99-1.2525-1.75-1.6323c-.759-.3799-1.636-.5743-2.635-.5743h-3.304v9.3375h3.304z"/><path d="m79.1312 25.6342-2.1606 6.5205h-1.2838l-1.6137-4.8248-1.6363 4.8248h-1.2928l-2.1607-6.5205h1.2567l1.6182 4.9559 1.686-4.9559h1.1165l1.6499 4.9831 1.6635-4.9831zm9.723 5.5076v1.0174h-4.8863v-6.5205h4.7597v1.0129h-3.5483v1.6957h3.146v.9993h-3.146v1.7997h3.6794zm9.8134-2.3785c.3616.1176.6464.3165.8588.5924.2125.2758.3165.6195.3165 1.0309 0 .5653-.217.9994-.6509 1.3068-.434.3075-1.0668.4613-1.8985.4613h-3.241v-6.5205h3.0556c.7685 0 1.3606.1492 1.781.4522.4159.303.6238.7144.6238 1.2435 0 .321-.0769.6059-.226.8546-.1492.2487-.3526.4432-.6148.5788zm-3.4082-2.1795v1.7952h1.7131c.4249 0 .7459-.0769.9719-.2261.226-.1493.339-.3753.339-.6647s-.113-.5201-.339-.6738c-.226-.1492-.5515-.2261-.9719-.2261h-1.7131zm1.9527 4.6213c.9357 0 1.4058-.312 1.4058-.9406 0-.6285-.4701-.9405-1.4058-.9405h-1.9527v1.8811zm13.5559-5.5709v6.5205h-1.211v-2.7945h-3.372v2.7945h-1.212v-6.5205h1.212v2.6905h3.372v-2.6905zm8.643 6.6154c-.665 0-1.261-.1447-1.795-.4341-.533-.2894-.953-.6873-1.256-1.2028-.308-.5109-.457-1.0852-.457-1.7183 0-.633.149-1.2073.457-1.7183.303-.5109.723-.9134 1.256-1.2028.534-.2894 1.135-.434 1.795-.434s1.261.1446 1.799.434c.533.2894.954.6874 1.257 1.1983.302.511.456 1.0853.456 1.7228 0 .6376-.154 1.2164-.456 1.7229-.303.5109-.724.9088-1.257 1.1982s-1.135.4341-1.799.4341zm0-1.0626c.434 0 .827-.0995 1.171-.2939.348-.1945.619-.4658.818-.8185.199-.3481.298-.7415.298-1.1802 0-.4386-.099-.8275-.298-1.1756-.199-.3482-.47-.624-.818-.8185-.344-.1944-.737-.2939-1.171-.2939s-.827.0995-1.171.2939c-.348.1945-.619.4703-.818.8185-.199.3527-.298.7461-.298 1.1756 0 .4296.099.8275.298 1.1802s.47.624.818.8185c.348.1944.737.2939 1.171.2939zm11.685 1.0626c-.665 0-1.266-.1447-1.799-.4341-.534-.2894-.954-.6873-1.257-1.2028-.303-.5109-.457-1.0852-.457-1.7183 0-.633.15-1.2073.457-1.7183.303-.5109.723-.9134 1.257-1.2028.533-.2894 1.134-.434 1.799-.434.664 0 1.265.1446 1.794.434.534.2894.954.6874 1.257 1.1983.303.511.456 1.0853.456 1.7228 0 .6376-.153 1.2164-.456 1.7229-.303.5109-.723.9088-1.257 1.1982-.533.2894-1.13.4341-1.794.4341zm0-1.0626c.434 0 .827-.0995 1.17-.2939.348-.1945.624-.4658.823-.8185.199-.3481.298-.7415.298-1.1802 0-.4386-.099-.8275-.298-1.1756-.199-.3482-.47-.624-.823-.8185-.348-.1944-.736-.2939-1.17-.2939s-.828.0995-1.171.2939c-.348.1945-.624.4703-.823.8185-.194.3527-.298.7461-.298 1.1756 0 .4296.099.8275.298 1.1802s.475.624.823.8185c.343.1944.737.2939 1.171.2939zm10.884-1.759-1.035 1.0626v1.6686h-1.211v-6.5205h1.211v3.3462l3.223-3.3462h1.361l-2.74 2.9166 2.907 3.6039h-1.415l-2.301-2.7267zm10.27 2.8216c-.501 0-.985-.0723-1.46-.2125-.465-.1447-.836-.3301-1.112-.5697l.416-.9406c.267.2125.592.3844.981.5155s.777.199 1.171.199c.483 0 .845-.0769 1.085-.2352.239-.1537.357-.3617.357-.6149 0-.1854-.068-.3392-.199-.4613s-.303-.217-.506-.2848c-.204-.0679-.484-.1447-.837-.2352-.497-.1175-.899-.2351-1.207-.3527-.307-.1175-.569-.3029-.791-.5562-.221-.2532-.33-.5923-.33-1.0219 0-.3572.1-.6873.294-.9812.195-.2939.493-.5291.886-.7054.393-.1719.877-.2578 1.447-.2578.397 0 .791.0498 1.175.1492.384.0995.714.2442.999.4296l-.38.9406c-.285-.1673-.583-.294-.895-.3844-.307-.0859-.61-.1311-.899-.1311-.48 0-.837.0814-1.067.2396-.235.1583-.348.3753-.348.6421 0 .1854.068.3392.199.4567.131.1176.303.2126.506.2804s.484.1447.836.2306c.484.113.882.2306 1.194.3482.311.1221.574.3075.795.5562.222.2487.33.5833.33 1.0083 0 .3618-.095.6873-.289.9767-.195.294-.493.5246-.891.7009-.397.1718-.881.2623-1.451.2623z"/><path d="m6.07517 30.0023 2.73473 4.7388h5.4695l2.7347-4.7388-1.9753-3.4231c1.5188-2.6317 3.0376-5.2634 4.5563-7.8905l-.7594-1.3159-.7593-1.3158-3.4942-6.0547 4.2535-7.3706h8.5071l4.2535 7.3706-1.9753 3.423 1.5188 2.6317 3.4941-6.0547-5.7768-10.0023h-11.5447l-5.7723 9.99774 2.8839 5.00116 2.1245 3.6853c-1.2656 2.193-2.5313 4.3861-3.797 6.5747h-3.95064l-2.73473 4.7388zm18.23003-15.2612h-3.9507l-2.7347-4.7388 2.7347-4.7389h5.4695l2.7347 4.7389-1.9753 3.423 3.797 6.5747h10.0258l5.7723 10.0023-5.7723 10.0022h-11.5446l-2.8839-5.0011-.6102-1.0536h3.0375l1.9754 3.423h8.507l4.2536-7.3705-4.2536-7.3706h-10.0258l-4.5564-7.8951zm-8.507 22.6317c1.6724-2.8939 3.3404-5.7924 5.0129-8.6864h9.1082l1.9754-3.423h5.4694l2.7348 4.7389-2.7348 4.7388h-5.4694l-1.9754-3.423h-7.5894l-5.0129 8.6864h-11.54468l-5.77232-10.0022 5.77232-9.9978h6.98828l-1.5188 2.6317h-3.95069l-4.25352 7.3706 4.25352 7.3705h8.50709z"/></g></g></svg>