<svg clip-rule="evenodd" fill-rule="evenodd" height="81.28mm" image-rendering="optimizeQuality" shape-rendering="geometricPrecision" text-rendering="geometricPrecision" viewBox="0 0 8128 8128" width="81.28mm" xmlns="http://www.w3.org/2000/svg" xmlns:xlink="http://www.w3.org/1999/xlink"><linearGradient id="a" gradientUnits="userSpaceOnUse" x1="4064.04" x2="4064.04" y1="6878.09" y2="1226.38"><stop offset="0" stop-color="#1a4898"/><stop offset="1" stop-color="#0da832"/></linearGradient><path d="m0 0h8128v8128h-8128z" fill="none"/><path d="m4883 1226h-1638l-410 709-410 710 410 709 302 523-108 187-215 373-216 374h-561l-388 672 388 673h777l388-673-281-486 216-373 216-373 107-187 108-187-108-186-108-187-496-859 604-1046h1208l604 1046-281 486 216 373 86-150 410-709-410-710zm-431 2465-215-374h-346-215l-108-186-216-374-64-112 388-673h776l388 673-280 486 216 373 215 373 108 187h604 819l410 710 409 709-409 710-410 709h-819-820l-409-709-87-150h431l281 486h1207l604-1046-604-1046h-992-215-216l-108-186-107-187zm862 1120h216 561l388 672-388 673h-777l-280-486h-431-431-216l-302 523-409 709h-820-819l-410-709-409-710 409-709 410-710h819 173l-216 373h-560l-604 1046 604 1046h1207l496-859 108-187 108-187h215 216 431 431l173-299z" fill="url(#a)"/></svg>